inDegrees=no
num_controls=7
num_derivatives=13
num_iterations=158
num_multipliers=7
num_parameters=0
num_slacks=7
num_states=26
objective=5.012004
objective_accelerations=0.469003
objective_balance=0.031229
objective_effort=0.286292
objective_height=4.140719
objective_ligament=0.084760
solver_duration=1735.279395
status=Solve_Succeeded
success=true
DataType=double
version=3
OpenSimVersion=4.4-2022-07-23-0e9fedc
endheader
time	/jointset/ground_pelvis/pelvis_tilt/value	/jointset/ground_pelvis/pelvis_tx/value	/jointset/ground_pelvis/pelvis_ty/value	/jointset/hip_l/hip_flexion_l/value	/jointset/hip_l/hip_adduction_l/value	/jointset/hip_l/hip_rotation_l/value	/jointset/back/lumbar_extension/value	/jointset/patellofemoral_l/patellar_flexion_l/value	/jointset/knee_l/knee_flexion_l/value	/jointset/knee_l/knee_adduction_l/value	/jointset/knee_l/knee_rotation_l/value	/jointset/ankle_l/ankle_angle_l/value	/jointset/subtalar_l/subtalar_angle_l/value	/jointset/ground_pelvis/pelvis_tilt/speed	/jointset/ground_pelvis/pelvis_tx/speed	/jointset/ground_pelvis/pelvis_ty/speed	/jointset/hip_l/hip_flexion_l/speed	/jointset/hip_l/hip_adduction_l/speed	/jointset/hip_l/hip_rotation_l/speed	/jointset/back/lumbar_extension/speed	/jointset/patellofemoral_l/patellar_flexion_l/speed	/jointset/knee_l/knee_flexion_l/speed	/jointset/knee_l/knee_adduction_l/speed	/jointset/knee_l/knee_rotation_l/speed	/jointset/ankle_l/ankle_angle_l/speed	/jointset/subtalar_l/subtalar_angle_l/speed	/forceset/tau_hip_flexion_l	/forceset/tau_hip_adduction_l	/forceset/tau_hip_rotation_l	/forceset/tau_knee_flexion_l	/forceset/tau_ankle_angle_l	/forceset/tau_subtalar_angle_l	/forceset/tau_lumbar_extension	lambda_cid13_p0	lambda_cid13_p1	lambda_cid13_p2	lambda_cid13_p3	lambda_cid13_p4	lambda_cid13_p5	lambda_cid14_p0	/jointset/ground_pelvis/pelvis_tilt/accel	/jointset/ground_pelvis/pelvis_tx/accel	/jointset/ground_pelvis/pelvis_ty/accel	/jointset/hip_l/hip_flexion_l/accel	/jointset/hip_l/hip_adduction_l/accel	/jointset/hip_l/hip_rotation_l/accel	/jointset/back/lumbar_extension/accel	/jointset/patellofemoral_l/patellar_flexion_l/accel	/jointset/knee_l/knee_flexion_l/accel	/jointset/knee_l/knee_adduction_l/accel	/jointset/knee_l/knee_rotation_l/accel	/jointset/ankle_l/ankle_angle_l/accel	/jointset/subtalar_l/subtalar_angle_l/accel	gamma_cid13_p0	gamma_cid13_p1	gamma_cid13_p2	gamma_cid13_p3	gamma_cid13_p4	gamma_cid13_p5	gamma_cid14_p0
1	-0.6858653576737621	-0.1688149951410321	0.6478622313084126	1.737619012472263	-0.4657180134693941	-0.1624968365059228	-0.2617985077199118	0.9129535798702556	0.9129535798702656	-0.173046943774814	-0.1745320610736559	-0.08655300118105207	-0.1590559458099443	-0.01923940765902666	0.01000552904263393	0.004015682738968774	0.0009795227956838003	-5.065852027856942e-05	0.000139135026186825	-3.834046905089149e-06	-0.002397029044627851	-0.002397029044627855	-0.001573110061011932	-4.813860150101218e-06	0.01618975826435019	0.007134059384476614	-0.3855437386538109	0.01596251000299305	-0.001601174380081279	-0.1876630359598823	0.1589079507257928	0.08608535018100805	0.3157714794115093	10.25860417593758	-40.09017484553723	7.091679535797964	-8.749093612994225	-625.0934328588988	-57.50972374638711	-20.74726915136842	2.347244017221692	0.7185523725550954	1.455936594698255	-6.303634632145176	0.2792574351387932	-1.634146161618861	-0.02652869392715351	-3.423045210745479	-3.423045210745434	-0.0565475898918734	-0.009236375263980721	0.1957083108511929	0.3853165556403487	1.305556661635221e-09	4.73082394810669e-09	-3.190756830876643e-09	2.374083575195344e-09	-2.256437835890914e-09	4.833776736649344e-09	1.152985045497747e-09
1.01	-0.6859416109620126	-0.1686790955748892	0.6479750333071307	1.737315214918484	-0.4657039302725265	-0.1625772618011418	-0.2617985597744186	0.9127584994718527	0.9127584994718596	-0.1730642197846879	-0.1745321053033535	-0.08638126385243958	-0.1589646856016554	0.00398898592717837	0.01717765767624082	0.01854162328862233	-0.06173436769017614	0.002869010840050117	-0.01622133905618441	-6.119738027561353e-06	-0.03661382273360471	-0.03661382273360266	-0.001879963291136139	-3.242187029246191e-06	0.01815965003632007	0.01112077500392615	-0.3854028709458488	0.01598942583481393	-0.001597080982788256	-0.1876155660489942	0.1588212947618427	0.08607117892988903	0.3156782668358777	10.24226997128616	-40.08552982172829	7.095930033306795	-8.828255866725648	-624.9688684644896	-57.53250377282496	-20.75644557995721	2.310672076719471	0.717034130550826	1.450457502129952	-6.25456683438601	0.2985793630746108	-1.636571503806038	0.01299006114399849	-3.42021180088142	-3.420211800881148	-0.01743565776525166	0.004974176455638571	0.197921279286602	0.4057673540107711	-8.219893205704e-10	-6.562930240527481e-10	6.131616164907516e-09	1.461645091306409e-11	-6.089324151251841e-09	1.537947933300241e-08	-2.274090131609237e-09
1.02	-0.6857855733049196	-0.1684713765180528	0.6482330016547504	1.736384418344331	-0.4656605988467371	-0.162821206531637	-0.2617986209722602	0.9122214080659798	0.91222140806598	-0.1730845006205081	-0.1745321097687776	-0.08618976927232366	-0.1588334745793893	0.02721878140935902	0.02436942718134335	0.03304895251945382	-0.1244202812792338	0.005798987264168005	-0.03256475202894978	-5.662715206393671e-06	-0.07079923053889048	-0.07079923053888658	-0.00217407524896141	3.139000311572301e-06	0.02014120856496137	0.0151242221799176	-0.3852620032378885	0.01601634166663445	-0.001592987585521661	-0.1875680961381074	0.1587346387978913	0.08605700767876932	0.315585054260248	10.22242735298362	-40.08129059470171	7.101410493917863	-8.927180932264443	-624.9213118512992	-57.56224099548709	-20.78152659489917	2.347524396416771	0.7224805468542551	1.452214330933852	-6.298039252784731	0.2813188478966217	-1.630733939697717	-0.02598015113825331	-3.416768034007257	-3.416768034007252	-0.05399933543208746	-0.008274472420020541	0.1980416621855293	0.3886628669487406	-2.954735412579009e-09	-6.01518761343804e-09	1.550534456025739e-08	-2.331816982270389e-09	-9.882975708312742e-09	2.583846906961365e-08	-5.694653774294886e-09
1.03	-0.6853972430182365	-0.1681916339259961	0.6486358890528303	1.734827031489365	-0.4655879073755935	-0.1632284690569979	-0.2617986717935986	0.9113426904275512	0.9113426904275175	-0.1731076646761142	-0.1745320471896389	-0.08597843821255967	-0.1586621523057416	0.0504455831777257	0.03158305458203828	0.04751930529108847	-0.187038712427167	0.008742613624591397	-0.04888089304805814	-4.11108950565355e-06	-0.1049322471658749	-0.1049322471658744	-0.002456557056782555	9.406332531040079e-06	0.02212332689040138	0.01914309052840949	-0.384745381064993	0.01604861242266818	-0.001594480400461543	-0.1875012053155378	0.1585723905732235	0.08602004657448545	0.3152352709579546	10.19590655855889	-40.06846147982288	7.108350800648214	-9.016601925964482	-624.5856773748831	-57.63805961562414	-20.82253001300599	2.31000280409979	0.7213973897402391	1.443059721268324	-6.240990053744033	0.3013812524738587	-1.631031560277948	0.01328138970457146	-3.409759136101832	-3.409759136102369	-0.0150483793964866	0.005088518945410929	0.1980460414069477	0.4089264128844742	-5.087534566932547e-09	-1.137379421932564e-08	2.487959699029671e-08	-4.678117418605893e-09	-1.367622691069711e-08	3.62965739811255e-08	-9.115150972751745e-09
